<svg height="512pt" viewBox="0 0 512 512" fill="#4D4D4F" width="512pt" xmlns="http://www.w3.org/2000/svg"><path d="m75 512h362c41.460938 0 75-34.535156 75-76 0-7.492188 0-227.484375 0-240 0-24.8125-20.1875-45-45-45h-75v-151h-293.261719l-98.738281 99.835938v336.164062c0 41.460938 33.535156 76 75 76zm407-316v240c0 24.933594-20.605469 46-45 46s-45-21.066406-45-46v-15h60v-225c0-8.269531 6.730469-15 15-15s15 6.730469 15 15zm-90-15.011719h32.578125c-1.664063 4.695313-2.578125 9.753907-2.578125 15.011719v195h-30zm-30 255.011719c0 16.765625 5.453125 32.773438 15.484375 46h-302.484375c-24.394531 0-45-21.066406-45-46v-315h90v-91h242zm-311.066406-345 39.066406-39.503906v39.503906zm0 0"/><path d="m165 196c0-24.8125-20.1875-45-45-45s-45 20.1875-45 45 20.1875 45 45 45 45-20.1875 45-45zm-45 15c-8.269531 0-15-6.730469-15-15s6.730469-15 15-15 15 6.730469 15 15-6.730469 15-15 15zm0 0"/><path d="m180 301c0-33.085938-26.914062-60-60-60s-60 26.914062-60 60v30h120zm-90 0c0-16.542969 13.457031-30 30-30s30 13.457031 30 30zm0 0"/><path d="m60 421h272v30h-272zm0 0"/><path d="m60 361h272v30h-272zm0 0"/><path d="m210 301h122v30h-122zm0 0"/><path d="m210 241h122v30h-122zm0 0"/><path d="m210 181h122v30h-122zm0 0"/><path d="m150 91h182v30h-182zm0 0"/></svg>